<?xml version="1.0" encoding="UTF-8"?>
<!DOCTYPE svg PUBLIC "-//W3C//DTD SVG 1.1//EN" "http://www.w3.org/Graphics/SVG/1.1/DTD/svg11.dtd">
<!-- Creator: CorelDRAW X5 -->
<svg xmlns="http://www.w3.org/2000/svg" xml:space="preserve" width="210mm" height="74.843mm" style="shape-rendering:geometricPrecision; text-rendering:geometricPrecision; image-rendering:optimizeQuality; fill-rule:evenodd; clip-rule:evenodd"
viewBox="0 0 21000 7484"
 xmlns:xlink="http://www.w3.org/1999/xlink"
 xmlns:svg="http://www.w3.org/2000/svg">
 <defs>
  <style type="text/css">
   <![CDATA[
    .fil0 {fill:black;fill-rule:nonzero}
   ]]>
  </style>
 </defs>
 <g id="Layer_x0020_1">
  <metadata id="CorelCorpID_0Corel-Layer"/>
 </g>
 <g id="svg4">
  <metadata id="CorelCorpID_1Corel-Layer"/>
  <path class="fil0" d="M2316 7481c-626,-25 -1138,-196 -1538,-514 -76,-61 -258,-243 -320,-320 -162,-204 -273,-403 -346,-623 -227,-678 -110,-1569 333,-2546 380,-836 965,-1666 1987,-2815 151,-169 599,-664 602,-664 1,0 -23,42 -54,94 -266,445 -493,969 -617,1423 -199,728 -175,1353 70,1838 169,334 459,623 785,783 571,280 1407,303 2428,68 70,-16 3553,-941 7740,-2055 4187,-1114 7612,-2024 7613,-2024 1,1 -9726,4163 -14776,6323 -800,342 -1014,428 -1390,560 -961,337 -1822,499 -2518,471l0 0z"/>
 </g>
</svg>
